# xmcd
#
# Track frame offsets:
#	150
#	20690
#	38727
#	56982
#	76532
#	94130
#	118537
#	140325
#	159825
#	174905
#
# Disc length: 2485 seconds
# Revision: 4
# Processed by: cddbd v1.5.2PL0 Copyright (c) Steve Scherf et al.
# Submitted via: dBpowerAMP V12.0
#
DISCID=7109b30a
DTITLE=Alabama - The Closer You Get
DYEAR=1983
DGENRE=Country
TTITLE0=The Closer You Get
TTITLE1=Lady Down On Love
TTITLE2=She Put The Sad In All His Songs
TTITLE3=Red River
TTITLE4=What In The Name Of Love
TTITLE5=Dixieland Delight
TTITLE6=Very Special Love
TTITLE7=Dixie Boy
TTITLE8=Alabama Sky
TTITLE9=Lovin' Man
EXTD=
EXTT0=
EXTT1=
EXTT2=
EXTT3=
EXTT4=
EXTT5=
EXTT6=
EXTT7=
EXTT8=
EXTT9=
PLAYORDER=
